<svg width="18" height="18" viewBox="0 0 18 18" fill="none" xmlns="http://www.w3.org/2000/svg">
<path d="M17.6402 9.18289C17.6402 8.59589 17.5812 8.03489 17.4752 7.49489H9.00018V10.7329H13.9542C13.7572 11.7999 13.1362 12.7029 12.2352 13.2949V15.5849H14.8462C16.5072 14.0629 17.6402 11.8369 17.6402 9.18289Z" fill="#4285F4"/>
<path d="M9.00018 18.0009C11.4312 18.0009 13.4682 17.1989 14.8462 15.5849L12.2352 13.2949C11.4382 13.8179 10.3342 14.1809 9.00018 14.1809C6.80118 14.1809 4.94618 12.7109 4.17818 10.7729H1.47118V13.1469C2.86218 15.9619 5.67918 18.0009 9.00018 18.0009Z" fill="#34A853"/>
<path d="M4.17818 10.7727C3.99218 10.2307 3.87618 9.63773 3.87618 9.00073C3.87618 8.36373 3.99218 7.77073 4.17818 7.22873V4.85473H1.47118C0.806182 6.11273 0.363182 7.51373 0.363182 9.00073C0.363182 10.4877 0.806182 11.8887 1.47118 13.1467L4.17818 10.7727Z" fill="#FBBC05"/>
<path d="M9.00018 3.81816C10.4172 3.81816 11.5252 4.36316 12.2852 5.08116L14.9022 2.54116C13.4632 1.19316 11.4262 0.363617 9.00018 0.363617C5.67918 0.363617 2.86218 2.40262 1.47118 5.21762L4.17818 7.59162C4.94618 5.65362 6.80118 3.81816 9.00018 3.81816Z" fill="#EA4335"/>
</svg>
